<svg width="20" height="18" viewBox="0 0 20 18" fill="none" xmlns="http://www.w3.org/2000/svg">
<path d="M6 5H4.77734C3.47772 5 2.82845 5 2.36621 5.26514C1.96058 5.49781 1.64877 5.86535 1.48595 6.30371C1.30053 6.80294 1.40726 7.44333 1.62065 8.72367L1.62109 8.72607L2.55443 14.3261C2.71276 15.276 2.79244 15.7512 3.02947 16.1077C3.23841 16.4219 3.5317 16.6703 3.87598 16.8247C4.26653 16.9999 4.74787 17 5.71094 17H14.2893C15.2524 17 15.7334 16.9999 16.124 16.8247C16.4682 16.6703 16.7618 16.4219 16.9707 16.1077C17.2077 15.7512 17.287 15.276 17.4453 14.3261L18.3786 8.72607L18.3796 8.72217C18.5928 7.44283 18.6995 6.80274 18.5141 6.30371C18.3513 5.86535 18.0402 5.49781 17.6346 5.26514C17.1724 5 16.522 5 15.2224 5H14M6 5H14M6 5C6 2.79086 7.79086 1 10 1C12.2091 1 14 2.79086 14 5" stroke="white" stroke-width="2" stroke-linecap="round" stroke-linejoin="round"/>
</svg>
