<svg width="51" height="51" viewBox="0 0 51 51" fill="none" xmlns="http://www.w3.org/2000/svg">
<path d="M10.625 21.0861C10.625 31.3962 19.6445 39.9222 23.6368 43.1911C24.2081 43.6589 24.4972 43.8956 24.9235 44.0156C25.2554 44.1091 25.7439 44.1091 26.0759 44.0156C26.5029 43.8954 26.79 43.661 27.3635 43.1914C31.3558 39.9225 40.3748 31.3971 40.3748 21.087C40.3748 17.1853 38.8077 13.4429 36.0181 10.6839C33.2285 7.92496 29.4453 6.375 25.5002 6.375C21.5551 6.375 17.7714 7.92519 14.9818 10.6841C12.1922 13.4431 10.625 17.1843 10.625 21.0861Z" stroke="#D41411" stroke-width="2" stroke-linecap="round" stroke-linejoin="round"/>
<path d="M21.25 19.125C21.25 21.4722 23.1528 23.375 25.5 23.375C27.8472 23.375 29.75 21.4722 29.75 19.125C29.75 16.7778 27.8472 14.875 25.5 14.875C23.1528 14.875 21.25 16.7778 21.25 19.125Z" stroke="#D41411" stroke-width="2" stroke-linecap="round" stroke-linejoin="round"/>
</svg>
