<svg width="20" height="15" viewBox="0 0 20 15" fill="none" xmlns="http://www.w3.org/2000/svg">
<path d="M11.9167 1.75H4.25C3.35695 1.75 2.91017 1.75 2.55794 1.8959C2.08831 2.09043 1.71543 2.46377 1.5209 2.93341C1.375 3.28564 1.375 3.73217 1.375 4.62522C2.96282 4.62522 4.25 5.91196 4.25 7.49978C4.25 9.0876 2.96282 10.375 1.375 10.375C1.375 11.2681 1.375 11.7146 1.5209 12.0668C1.71543 12.5364 2.08831 12.9095 2.55794 13.104C2.91017 13.2499 3.35695 13.25 4.25 13.25H11.9167M11.9167 1.75H15.75C16.6431 1.75 17.0896 1.75 17.4418 1.8959C17.9114 2.09043 18.2845 2.46377 18.479 2.93341C18.6249 3.28564 18.6249 3.73217 18.6249 4.62522C17.0371 4.62522 15.75 5.91218 15.75 7.5C15.75 9.08782 17.0371 10.375 18.6249 10.375C18.6249 11.2681 18.6249 11.7146 18.479 12.0668C18.2845 12.5364 17.9114 12.9095 17.4418 13.104C17.0896 13.2499 16.6431 13.25 15.75 13.25H11.9167M11.9167 1.75V13.25" stroke="white" stroke-width="2" stroke-linecap="round" stroke-linejoin="round"/>
</svg>
