<svg width="35" height="25" viewBox="0 0 35 25" fill="none" xmlns="http://www.w3.org/2000/svg">
<path d="M21.0833 1.75H6.75C5.08038 1.75 4.2451 1.75 3.58659 2.02276C2.70857 2.38645 2.01145 3.08445 1.64776 3.96246C1.375 4.62098 1.375 5.45579 1.375 7.12541C4.34353 7.12541 6.75 9.53106 6.75 12.4996C6.75 15.4681 4.34353 17.875 1.375 17.875C1.375 19.5446 1.375 20.3794 1.64776 21.0379C2.01145 21.916 2.70857 22.6134 3.58659 22.9771C4.2451 23.2498 5.08038 23.25 6.75 23.25H21.0833M21.0833 1.75H28.25C29.9196 1.75 30.7544 1.75 31.4129 2.02276C32.291 2.38645 32.9884 3.08445 33.352 3.96246C33.6248 4.62098 33.6248 5.45579 33.6248 7.12541C30.6563 7.12541 28.25 9.53147 28.25 12.5C28.25 15.4685 30.6563 17.875 33.6248 17.875C33.6248 19.5446 33.6248 20.3794 33.352 21.0379C32.9884 21.916 32.291 22.6134 31.4129 22.9771C30.7544 23.2498 29.9196 23.25 28.25 23.25H21.0833M21.0833 1.75V23.25" stroke="white" stroke-width="2" stroke-linecap="round" stroke-linejoin="round"/>
</svg>
